<svg width="20px" height="20px" viewBox="0 0 20 20" fill="#ffffff" xmlns="http://www.w3.org/2000/svg" class="icon"><path d="M12.344 17.344H7.656c-0.086 0 -0.156 0.07 -0.156 0.156v0.625c0 0.346 0.279 0.625 0.625 0.625h3.75c0.346 0 0.625 -0.279 0.625 -0.625v-0.625c0 -0.086 -0.07 -0.156 -0.156 -0.156M10 1.25c-3.537 0 -6.406 2.869 -6.406 6.406 0 2.371 1.289 4.441 3.203 5.549V15.469c0 0.346 0.279 0.625 0.625 0.625h5.156c0.346 0 0.625 -0.279 0.625 -0.625V13.205c1.914 -1.107 3.203 -3.178 3.203 -5.549 0 -3.537 -2.869 -6.406 -6.406 -6.406m2.498 10.738L11.797 12.395V14.688H8.203V12.395l-0.701 -0.406C5.965 11.1 5 9.463 5 7.656c0 -2.762 2.238 -5 5 -5s5 2.238 5 5c0 1.807 -0.965 3.443 -2.502 4.332"/></svg>