<svg width="900" height="359" viewBox="0 0 900 359" class="keymap" xmlns="http://www.w3.org/2000/svg" xmlns:xlink="http://www.w3.org/1999/xlink">
<defs>/* start glyphs */
<svg id="mdi:apple-keyboard-caps">
<svg xmlns="http://www.w3.org/2000/svg" id="mdi-apple-keyboard-caps" viewBox="0 0 24 24"><path d="M15,14V8H17.17L12,2.83L6.83,8H9V14H15M12,0L22,10H17V16H7V10H2L12,0M7,18H17V24H7V18M15,20H9V22H15V20Z" /></svg>
</svg>
<svg id="mdi:apple-keyboard-command">
<svg xmlns="http://www.w3.org/2000/svg" id="mdi-apple-keyboard-command" viewBox="0 0 24 24"><path d="M6,2A4,4 0 0,1 10,6V8H14V6A4,4 0 0,1 18,2A4,4 0 0,1 22,6A4,4 0 0,1 18,10H16V14H18A4,4 0 0,1 22,18A4,4 0 0,1 18,22A4,4 0 0,1 14,18V16H10V18A4,4 0 0,1 6,22A4,4 0 0,1 2,18A4,4 0 0,1 6,14H8V10H6A4,4 0 0,1 2,6A4,4 0 0,1 6,2M16,18A2,2 0 0,0 18,20A2,2 0 0,0 20,18A2,2 0 0,0 18,16H16V18M14,10H10V14H14V10M6,16A2,2 0 0,0 4,18A2,2 0 0,0 6,20A2,2 0 0,0 8,18V16H6M8,6A2,2 0 0,0 6,4A2,2 0 0,0 4,6A2,2 0 0,0 6,8H8V6M18,8A2,2 0 0,0 20,6A2,2 0 0,0 18,4A2,2 0 0,0 16,6V8H18Z" /></svg>
</svg>
<svg id="mdi:apple-keyboard-control">
<svg xmlns="http://www.w3.org/2000/svg" id="mdi-apple-keyboard-control" viewBox="0 0 24 24"><path d="M19.78,11.78L18.36,13.19L12,6.83L5.64,13.19L4.22,11.78L12,4L19.78,11.78Z" /></svg>
</svg>
<svg id="mdi:apple-keyboard-option">
<svg xmlns="http://www.w3.org/2000/svg" id="mdi-apple-keyboard-option" viewBox="0 0 24 24"><path d="M3,4H9.11L16.15,18H21V20H14.88L7.84,6H3V4M14,4H21V6H14V4Z" /></svg>
</svg>
<svg id="mdi:apple-keyboard-shift">
<svg xmlns="http://www.w3.org/2000/svg" id="mdi-apple-keyboard-shift" viewBox="0 0 24 24"><path d="M15,18V12H17.17L12,6.83L6.83,12H9V18H15M12,4L22,14H17V20H7V14H2L12,4Z" /></svg>
</svg>
<svg id="mdi:backspace">
<svg xmlns="http://www.w3.org/2000/svg" id="mdi-backspace" viewBox="0 0 24 24"><path d="M22,3H7C6.31,3 5.77,3.35 5.41,3.88L0,12L5.41,20.11C5.77,20.64 6.31,21 7,21H22A2,2 0 0,0 24,19V5A2,2 0 0,0 22,3M19,15.59L17.59,17L14,13.41L10.41,17L9,15.59L12.59,12L9,8.41L10.41,7L14,10.59L17.59,7L19,8.41L15.41,12" /></svg>
</svg>
<svg id="mdi:backspace-reverse">
<svg xmlns="http://www.w3.org/2000/svg" id="mdi-backspace-reverse" viewBox="0 0 24 24"><path d="M2,21H17C17.7,21 18.2,20.6 18.6,20.1L24,12L18.6,3.9C18.2,3.4 17.7,3 17,3H2A2,2 0 0,0 0,5V19A2,2 0 0,0 2,21M5,8.4L6.4,7L10,10.6L13.6,7L15,8.4L11.4,12L15,15.6L13.6,17L10,13.4L6.4,17L5,15.6L8.6,12" /></svg>
</svg>
<svg id="mdi:bluetooth-connect">
<svg xmlns="http://www.w3.org/2000/svg" id="mdi-bluetooth-connect" viewBox="0 0 24 24"><path d="M19,10L17,12L19,14L21,12M14.88,16.29L13,18.17V14.41M13,5.83L14.88,7.71L13,9.58M17.71,7.71L12,2H11V9.58L6.41,5L5,6.41L10.59,12L5,17.58L6.41,19L11,14.41V22H12L17.71,16.29L13.41,12M7,12L5,10L3,12L5,14L7,12Z" /></svg>
</svg>
<svg id="mdi:bluetooth-off">
<svg xmlns="http://www.w3.org/2000/svg" id="mdi-bluetooth-off" viewBox="0 0 24 24"><path d="M13,5.83L14.88,7.71L13.28,9.31L14.69,10.72L17.71,7.7L12,2H11V7.03L13,9.03M5.41,4L4,5.41L10.59,12L5,17.59L6.41,19L11,14.41V22H12L16.29,17.71L18.59,20L20,18.59M13,18.17V14.41L14.88,16.29" /></svg>
</svg>
<svg id="mdi:brightness-5">
<svg xmlns="http://www.w3.org/2000/svg" id="mdi-brightness-5" viewBox="0 0 24 24"><path d="M12,18A6,6 0 0,1 6,12A6,6 0 0,1 12,6A6,6 0 0,1 18,12A6,6 0 0,1 12,18M20,15.31L23.31,12L20,8.69V4H15.31L12,0.69L8.69,4H4V8.69L0.69,12L4,15.31V20H8.69L12,23.31L15.31,20H20V15.31Z" /></svg>
</svg>
<svg id="mdi:brightness-7">
<svg xmlns="http://www.w3.org/2000/svg" id="mdi-brightness-7" viewBox="0 0 24 24"><path d="M12,8A4,4 0 0,0 8,12A4,4 0 0,0 12,16A4,4 0 0,0 16,12A4,4 0 0,0 12,8M12,18A6,6 0 0,1 6,12A6,6 0 0,1 12,6A6,6 0 0,1 18,12A6,6 0 0,1 12,18M20,8.69V4H15.31L12,0.69L8.69,4H4V8.69L0.69,12L4,15.31V20H8.69L12,23.31L15.31,20H20V15.31L23.31,12L20,8.69Z" /></svg>
</svg>
<svg id="mdi:code-block-tags">
<svg xmlns="http://www.w3.org/2000/svg" id="mdi-code-block-tags" viewBox="0 0 24 24"><path d="M5.59 3.41L7 4.82L3.82 8L7 11.18L5.59 12.6L1 8L5.59 3.41M11.41 3.41L16 8L11.41 12.6L10 11.18L13.18 8L10 4.82L11.41 3.41M22 6V18C22 19.11 21.11 20 20 20H4C2.9 20 2 19.11 2 18V14H4V18H20V6H17.03V4H20C21.11 4 22 4.89 22 6Z" /></svg>
</svg>
<svg id="mdi:content-copy">
<svg xmlns="http://www.w3.org/2000/svg" id="mdi-content-copy" viewBox="0 0 24 24"><path d="M19,21H8V7H19M19,5H8A2,2 0 0,0 6,7V21A2,2 0 0,0 8,23H19A2,2 0 0,0 21,21V7A2,2 0 0,0 19,5M16,1H4A2,2 0 0,0 2,3V17H4V3H16V1Z" /></svg>
</svg>
<svg id="mdi:content-cut">
<svg xmlns="http://www.w3.org/2000/svg" id="mdi-content-cut" viewBox="0 0 24 24"><path d="M19,3L13,9L15,11L22,4V3M12,12.5A0.5,0.5 0 0,1 11.5,12A0.5,0.5 0 0,1 12,11.5A0.5,0.5 0 0,1 12.5,12A0.5,0.5 0 0,1 12,12.5M6,20A2,2 0 0,1 4,18C4,16.89 4.9,16 6,16A2,2 0 0,1 8,18C8,19.11 7.1,20 6,20M6,8A2,2 0 0,1 4,6C4,4.89 4.9,4 6,4A2,2 0 0,1 8,6C8,7.11 7.1,8 6,8M9.64,7.64C9.87,7.14 10,6.59 10,6A4,4 0 0,0 6,2A4,4 0 0,0 2,6A4,4 0 0,0 6,10C6.59,10 7.14,9.87 7.64,9.64L10,12L7.64,14.36C7.14,14.13 6.59,14 6,14A4,4 0 0,0 2,18A4,4 0 0,0 6,22A4,4 0 0,0 10,18C10,17.41 9.87,16.86 9.64,16.36L12,14L19,21H22V20L9.64,7.64Z" /></svg>
</svg>
<svg id="mdi:content-paste">
<svg xmlns="http://www.w3.org/2000/svg" id="mdi-content-paste" viewBox="0 0 24 24"><path d="M19,20H5V4H7V7H17V4H19M12,2A1,1 0 0,1 13,3A1,1 0 0,1 12,4A1,1 0 0,1 11,3A1,1 0 0,1 12,2M19,2H14.82C14.4,0.84 13.3,0 12,0C10.7,0 9.6,0.84 9.18,2H5A2,2 0 0,0 3,4V20A2,2 0 0,0 5,22H19A2,2 0 0,0 21,20V4A2,2 0 0,0 19,2Z" /></svg>
</svg>
<svg id="mdi:dock-window">
<svg xmlns="http://www.w3.org/2000/svg" id="mdi-dock-window" viewBox="0 0 24 24"><path d="M18 18V20H4A2 2 0 0 1 2 18V8H4V18M22 6V14A2 2 0 0 1 20 16H8A2 2 0 0 1 6 14V6A2 2 0 0 1 8 4H20A2 2 0 0 1 22 6M20 6H8V14H20Z" /></svg>
</svg>
<svg id="mdi:folder-search-outline">
<svg xmlns="http://www.w3.org/2000/svg" id="mdi-folder-search-outline" viewBox="0 0 24 24"><path d="M16.5,12C19,12 21,14 21,16.5C21,17.38 20.75,18.21 20.31,18.9L23.39,22L22,23.39L18.88,20.32C18.19,20.75 17.37,21 16.5,21C14,21 12,19 12,16.5C12,14 14,12 16.5,12M16.5,14A2.5,2.5 0 0,0 14,16.5A2.5,2.5 0 0,0 16.5,19A2.5,2.5 0 0,0 19,16.5A2.5,2.5 0 0,0 16.5,14M19,8H3V18H10.17C10.34,18.72 10.63,19.39 11,20H3C1.89,20 1,19.1 1,18V6C1,4.89 1.89,4 3,4H9L11,6H19A2,2 0 0,1 21,8V11.81C20.42,11.26 19.75,10.81 19,10.5V8Z" /></svg>
</svg>
<svg id="mdi:format-letter-ends-with">
<svg xmlns="http://www.w3.org/2000/svg" id="mdi-format-letter-ends-with" viewBox="0 0 24 24"><path d="M11.14 4L6.43 16H8.36L9.32 13.43H14.67L15.64 16H17.57L12.86 4M12 6.29L14.03 11.71H9.96M20 14V18H2V20H22V14Z" /></svg>
</svg>
<svg id="mdi:format-letter-starts-with">
<svg xmlns="http://www.w3.org/2000/svg" id="mdi-format-letter-starts-with" viewBox="0 0 24 24"><path d="M11.14 4L6.43 16H8.36L9.32 13.43H14.67L15.64 16H17.57L12.86 4M12 6.29L14.03 11.71H9.96M4 18V15H2V20H22V18Z" /></svg>
</svg>
<svg id="mdi:format-pilcrow-arrow-left">
<svg xmlns="http://www.w3.org/2000/svg" id="mdi-format-pilcrow-arrow-left" viewBox="0 0 24 24"><path d="M8,17V14L4,18L8,22V19H20V17M10,10V15H12V4H14V15H16V4H18V2H10A4,4 0 0,0 6,6A4,4 0 0,0 10,10Z" /></svg>
</svg>
<svg id="mdi:format-pilcrow-arrow-right">
<svg xmlns="http://www.w3.org/2000/svg" id="mdi-format-pilcrow-arrow-right" viewBox="0 0 24 24"><path d="M21,18L17,14V17H5V19H17V22M9,10V15H11V4H13V15H15V4H17V2H9A4,4 0 0,0 5,6A4,4 0 0,0 9,10Z" /></svg>
</svg>
<svg id="mdi:keyboard-return">
<svg xmlns="http://www.w3.org/2000/svg" id="mdi-keyboard-return" viewBox="0 0 24 24"><path d="M19,7V11H5.83L9.41,7.41L8,6L2,12L8,18L9.41,16.58L5.83,13H21V7H19Z" /></svg>
</svg>
<svg id="mdi:keyboard-space">
<svg xmlns="http://www.w3.org/2000/svg" id="mdi-keyboard-space" viewBox="0 0 24 24"><path d="M3 15H5V19H19V15H21V19C21 20.1 20.1 21 19 21H5C3.9 21 3 20.1 3 19V15Z" /></svg>
</svg>
<svg id="mdi:keyboard-tab">
<svg xmlns="http://www.w3.org/2000/svg" id="mdi-keyboard-tab" viewBox="0 0 24 24"><path d="M20,18H22V6H20M11.59,7.41L15.17,11H1V13H15.17L11.59,16.58L13,18L19,12L13,6L11.59,7.41Z" /></svg>
</svg>
<svg id="mdi:keyboard-variant">
<svg xmlns="http://www.w3.org/2000/svg" id="mdi-keyboard-variant" viewBox="0 0 24 24"><path d="M6,16H18V18H6V16M6,13V15H2V13H6M7,15V13H10V15H7M11,15V13H13V15H11M14,15V13H17V15H14M18,15V13H22V15H18M2,10H5V12H2V10M19,12V10H22V12H19M18,12H16V10H18V12M8,12H6V10H8V12M12,12H9V10H12V12M15,12H13V10H15V12M2,9V7H4V9H2M5,9V7H7V9H5M8,9V7H10V9H8M11,9V7H13V9H11M14,9V7H16V9H14M17,9V7H22V9H17Z" /></svg>
</svg>
<svg id="mdi:lightbulb-off-outline">
<svg xmlns="http://www.w3.org/2000/svg" id="mdi-lightbulb-off-outline" viewBox="0 0 24 24"><path d="M12,2C9.76,2 7.78,3.05 6.5,4.68L7.93,6.11C8.84,4.84 10.32,4 12,4A5,5 0 0,1 17,9C17,10.68 16.16,12.16 14.89,13.06L16.31,14.5C17.94,13.21 19,11.24 19,9A7,7 0 0,0 12,2M3.28,4L2,5.27L5.04,8.3C5,8.53 5,8.76 5,9C5,11.38 6.19,13.47 8,14.74V17A1,1 0 0,0 9,18H14.73L18.73,22L20,20.72L3.28,4M7.23,10.5L12.73,16H10V13.58C8.68,13 7.66,11.88 7.23,10.5M9,20V21A1,1 0 0,0 10,22H14A1,1 0 0,0 15,21V20H9Z" /></svg>
</svg>
<svg id="mdi:lightbulb-on-20">
<svg xmlns="http://www.w3.org/2000/svg" id="mdi-lightbulb-on-20" viewBox="0 0 24 24"><path d="M1 11H4V13H1V11M4.9 3.5L3.5 4.9L5.6 7L7 5.6L4.9 3.5M13 1H11V4H13V1M20 11V13H23V11H20M10 22C10 22.6 10.4 23 11 23H13C13.6 23 14 22.6 14 22V21H10V22M19.1 3.5L17 5.6L18.4 7L20.5 4.9L19.1 3.5M18 12C18 14.2 16.8 16.2 15 17.2V19C15 19.6 14.6 20 14 20H10C9.4 20 9 19.6 9 19V17.2C7.2 16.2 6 14.2 6 12C6 8.7 8.7 6 12 6S18 8.7 18 12M16 12C16 9.79 14.21 8 12 8S8 9.79 8 12 9.79 16 12 16 16 14.21 16 12Z" /></svg>
</svg>
<svg id="mdi:lightbulb-on-90">
<svg xmlns="http://www.w3.org/2000/svg" id="mdi-lightbulb-on-90" viewBox="0 0 24 24"><path d="M7 5.6L5.6 7L3.5 4.9L4.9 3.5L7 5.6M10 22C10 22.6 10.4 23 11 23H13C13.6 23 14 22.6 14 22V21H10V22M1 13H4V11H1V13M13 1H11V4H13V1M20 11V13H23V11H20M19.1 3.5L17 5.6L18.4 7L20.5 4.9L19.1 3.5M18 12C18 14.2 16.8 16.2 15 17.2V19C15 19.6 14.6 20 14 20H10C9.4 20 9 19.6 9 19V17.2C7.2 16.2 6 14.2 6 12C6 8.7 8.7 6 12 6S18 8.7 18 12M12 8C11 8 10.09 8.38 9.39 9H14.61C13.91 8.38 13 8 12 8Z" /></svg>
</svg>
<svg id="mdi:lock-outline">
<svg xmlns="http://www.w3.org/2000/svg" id="mdi-lock-outline" viewBox="0 0 24 24"><path d="M12,17C10.89,17 10,16.1 10,15C10,13.89 10.89,13 12,13A2,2 0 0,1 14,15A2,2 0 0,1 12,17M18,20V10H6V20H18M18,8A2,2 0 0,1 20,10V20A2,2 0 0,1 18,22H6C4.89,22 4,21.1 4,20V10C4,8.89 4.89,8 6,8H7V6A5,5 0 0,1 12,1A5,5 0 0,1 17,6V8H18M12,3A3,3 0 0,0 9,6V8H15V6A3,3 0 0,0 12,3Z" /></svg>
</svg>
<svg id="mdi:mouse">
<svg xmlns="http://www.w3.org/2000/svg" id="mdi-mouse" viewBox="0 0 24 24"><path d="M11,1.07C7.05,1.56 4,4.92 4,9H11M4,15A8,8 0 0,0 12,23A8,8 0 0,0 20,15V11H4M13,1.07V9H20C20,4.92 16.94,1.56 13,1.07Z" /></svg>
</svg>
<svg id="mdi:mouse-left-click-outline">
<svg xmlns="http://www.w3.org/2000/svg" id="mdi-mouse-left-click-outline" viewBox="0 0 24 24"><path d="M13 9V1.07C13.7 1.16 14.37 1.33 15 1.59C17.33 2.53 19.11 4.53 19.75 7C19.91 7.64 20 8.31 20 9H13M17.66 7C17.18 5.65 16.23 4.5 15 3.81V7H17.66M6 15V13H18V15C18 16.59 17.37 18.12 16.24 19.24C15.12 20.37 13.59 21 12 21C10.41 21 8.88 20.37 7.76 19.24C6.63 18.12 6 16.59 6 15M4 15C4 17.12 4.84 19.16 6.34 20.66C7.84 22.16 9.88 23 12 23C14.12 23 16.16 22.16 17.66 20.66C19.16 19.16 20 17.12 20 15V11H4V15M11 9V1.07C7.06 1.56 4 4.92 4 9H11Z" /></svg>
</svg>
<svg id="mdi:mouse-right-click-outline">
<svg xmlns="http://www.w3.org/2000/svg" id="mdi-mouse-right-click-outline" viewBox="0 0 24 24"><path d="M13 9V1.07C16.94 1.56 20 4.92 20 9H13M11 9V1.07C10.3 1.16 9.63 1.33 9 1.59C6.67 2.53 4.89 4.53 4.25 7C4.09 7.64 4 8.31 4 9H11M6.34 7C6.82 5.65 7.78 4.5 9 3.81V7H6.34M6 15V13H18V15C18 16.59 17.37 18.12 16.24 19.24C15.12 20.37 13.59 21 12 21C10.41 21 8.88 20.37 7.76 19.24C6.63 18.12 6 16.59 6 15M4 15C4 17.12 4.84 19.16 6.34 20.66C7.84 22.16 9.88 23 12 23C14.12 23 16.16 22.16 17.66 20.66C19.16 19.16 20 17.12 20 15V11H4V15Z" /></svg>
</svg>
<svg id="mdi:numeric-1-box-multiple-outline">
<svg xmlns="http://www.w3.org/2000/svg" id="mdi-numeric-1-box-multiple-outline" viewBox="0 0 24 24"><path d="M21,17H7V3H21M21,1H7A2,2 0 0,0 5,3V17A2,2 0 0,0 7,19H21A2,2 0 0,0 23,17V3A2,2 0 0,0 21,1M14,15H16V5H12V7H14M3,5H1V21A2,2 0 0,0 3,23H19V21H3V5Z" /></svg>
</svg>
<svg id="mdi:numeric-2-box-multiple-outline">
<svg xmlns="http://www.w3.org/2000/svg" id="mdi-numeric-2-box-multiple-outline" viewBox="0 0 24 24"><path d="M17,13H13V11H15A2,2 0 0,0 17,9V7C17,5.89 16.1,5 15,5H11V7H15V9H13A2,2 0 0,0 11,11V15H17M21,17H7V3H21M21,1H7A2,2 0 0,0 5,3V17A2,2 0 0,0 7,19H21A2,2 0 0,0 23,17V3A2,2 0 0,0 21,1M3,5H1V21A2,2 0 0,0 3,23H19V21H3V5Z" /></svg>
</svg>
<svg id="mdi:numeric-3-box-multiple-outline">
<svg xmlns="http://www.w3.org/2000/svg" id="mdi-numeric-3-box-multiple-outline" viewBox="0 0 24 24"><path d="M17,13V11.5A1.5,1.5 0 0,0 15.5,10A1.5,1.5 0 0,0 17,8.5V7C17,5.89 16.1,5 15,5H11V7H15V9H13V11H15V13H11V15H15A2,2 0 0,0 17,13M3,5H1V21A2,2 0 0,0 3,23H19V21H3M21,17H7V3H21M21,1H7A2,2 0 0,0 5,3V17A2,2 0 0,0 7,19H21A2,2 0 0,0 23,17V3A2,2 0 0,0 21,1Z" /></svg>
</svg>
<svg id="mdi:numeric-4-box-multiple-outline">
<svg xmlns="http://www.w3.org/2000/svg" id="mdi-numeric-4-box-multiple-outline" viewBox="0 0 24 24"><path d="M21,17H7V3H21M21,1H7A2,2 0 0,0 5,3V17A2,2 0 0,0 7,19H21A2,2 0 0,0 23,17V3A2,2 0 0,0 21,1M15,15H17V5H15V9H13V5H11V11H15M3,5H1V21A2,2 0 0,0 3,23H19V21H3V5Z" /></svg>
</svg>
<svg id="mdi:numeric-5-box-multiple-outline">
<svg xmlns="http://www.w3.org/2000/svg" id="mdi-numeric-5-box-multiple-outline" viewBox="0 0 24 24"><path d="M17,13V11C17,9.89 16.1,9 15,9H13V7H17V5H11V11H15V13H11V15H15A2,2 0 0,0 17,13M3,5H1V21A2,2 0 0,0 3,23H19V21H3M21,17H7V3H21M21,1H7A2,2 0 0,0 5,3V17A2,2 0 0,0 7,19H21A2,2 0 0,0 23,17V3A2,2 0 0,0 21,1Z" /></svg>
</svg>
<svg id="mdi:numeric-6-box-multiple-outline">
<svg xmlns="http://www.w3.org/2000/svg" id="mdi-numeric-6-box-multiple-outline" viewBox="0 0 24 24"><path d="M13,11H15V13H13M13,15H15A2,2 0 0,0 17,13V11C17,9.89 16.1,9 15,9H13V7H17V5H13A2,2 0 0,0 11,7V13C11,14.11 11.9,15 13,15M21,17H7V3H21M21,1H7A2,2 0 0,0 5,3V17A2,2 0 0,0 7,19H21A2,2 0 0,0 23,17V3A2,2 0 0,0 21,1M3,5H1V21A2,2 0 0,0 3,23H19V21H3V5Z" /></svg>
</svg>
<svg id="mdi:numeric-7-box-multiple-outline">
<svg xmlns="http://www.w3.org/2000/svg" id="mdi-numeric-7-box-multiple-outline" viewBox="0 0 24 24"><path d="M13,15L17,7V5H11V7H15L11,15M21,17H7V3H21M21,1H7A2,2 0 0,0 5,3V17A2,2 0 0,0 7,19H21A2,2 0 0,0 23,17V3A2,2 0 0,0 21,1M3,5H1V21A2,2 0 0,0 3,23H19V21H3V5Z" /></svg>
</svg>
<svg id="mdi:numeric-8-box-multiple-outline">
<svg xmlns="http://www.w3.org/2000/svg" id="mdi-numeric-8-box-multiple-outline" viewBox="0 0 24 24"><path d="M13,11H15V13H13M13,7H15V9H13M13,15H15A2,2 0 0,0 17,13V11.5A1.5,1.5 0 0,0 15.5,10A1.5,1.5 0 0,0 17,8.5V7C17,5.89 16.1,5 15,5H13A2,2 0 0,0 11,7V8.5A1.5,1.5 0 0,0 12.5,10A1.5,1.5 0 0,0 11,11.5V13C11,14.11 11.9,15 13,15M21,17H7V3H21M21,1H7A2,2 0 0,0 5,3V17A2,2 0 0,0 7,19H21A2,2 0 0,0 23,17V3A2,2 0 0,0 21,1M3,5H1V21A2,2 0 0,0 3,23H19V21H3V5Z" /></svg>
</svg>
<svg id="mdi:play-pause">
<svg xmlns="http://www.w3.org/2000/svg" id="mdi-play-pause" viewBox="0 0 24 24"><path d="M3,5V19L11,12M13,19H16V5H13M18,5V19H21V5" /></svg>
</svg>
<svg id="mdi:power">
<svg xmlns="http://www.w3.org/2000/svg" id="mdi-power" viewBox="0 0 24 24"><path d="M16.56,5.44L15.11,6.89C16.84,7.94 18,9.83 18,12A6,6 0 0,1 12,18A6,6 0 0,1 6,12C6,9.83 7.16,7.94 8.88,6.88L7.44,5.44C5.36,6.88 4,9.28 4,12A8,8 0 0,0 12,20A8,8 0 0,0 20,12C20,9.28 18.64,6.88 16.56,5.44M13,3H11V13H13" /></svg>
</svg>
<svg id="mdi:power-plug-outline">
<svg xmlns="http://www.w3.org/2000/svg" id="mdi-power-plug-outline" viewBox="0 0 24 24"><path d="M16 7V3H14V7H10V3H8V7C7 7 6 8 6 9V14.5L9.5 18V21H14.5V18L18 14.5V9C18 8 17 7 16 7M16 13.67L13.09 16.59L12.67 17H11.33L10.92 16.59L8 13.67V9.09C8 9.06 8.06 9 8.09 9H15.92C15.95 9 16 9.06 16 9.09V13.67Z" /></svg>
</svg>
<svg id="mdi:redo">
<svg xmlns="http://www.w3.org/2000/svg" id="mdi-redo" viewBox="0 0 24 24"><path d="M18.4,10.6C16.55,9 14.15,8 11.5,8C6.85,8 2.92,11.03 1.54,15.22L3.9,16C4.95,12.81 7.95,10.5 11.5,10.5C13.45,10.5 15.23,11.22 16.62,12.38L13,16H22V7L18.4,10.6Z" /></svg>
</svg>
<svg id="mdi:restart">
<svg xmlns="http://www.w3.org/2000/svg" id="mdi-restart" viewBox="0 0 24 24"><path d="M12,4C14.1,4 16.1,4.8 17.6,6.3C20.7,9.4 20.7,14.5 17.6,17.6C15.8,19.5 13.3,20.2 10.9,19.9L11.4,17.9C13.1,18.1 14.9,17.5 16.2,16.2C18.5,13.9 18.5,10.1 16.2,7.7C15.1,6.6 13.5,6 12,6V10.6L7,5.6L12,0.6V4M6.3,17.6C3.7,15 3.3,11 5.1,7.9L6.6,9.4C5.5,11.6 5.9,14.4 7.8,16.2C8.3,16.7 8.9,17.1 9.6,17.4L9,19.4C8,19 7.1,18.4 6.3,17.6Z" /></svg>
</svg>
<svg id="mdi:skip-backward">
<svg xmlns="http://www.w3.org/2000/svg" id="mdi-skip-backward" viewBox="0 0 24 24"><path d="M20,5V19L13,12M6,5V19H4V5M13,5V19L6,12" /></svg>
</svg>
<svg id="mdi:skip-forward">
<svg xmlns="http://www.w3.org/2000/svg" id="mdi-skip-forward" viewBox="0 0 24 24"><path d="M4,5V19L11,12M18,5V19H20V5M11,5V19L18,12" /></svg>
</svg>
<svg id="mdi:stop">
<svg xmlns="http://www.w3.org/2000/svg" id="mdi-stop" viewBox="0 0 24 24"><path d="M18,18H6V6H18V18Z" /></svg>
</svg>
<svg id="mdi:undo">
<svg xmlns="http://www.w3.org/2000/svg" id="mdi-undo" viewBox="0 0 24 24"><path d="M12.5,8C9.85,8 7.45,9 5.6,10.6L2,7V16H11L7.38,12.38C8.77,11.22 10.54,10.5 12.5,10.5C16.04,10.5 19.05,12.81 20.1,16L22.47,15.22C21.08,11.03 17.15,8 12.5,8Z" /></svg>
</svg>
<svg id="mdi:unfold-more-horizontal">
<svg xmlns="http://www.w3.org/2000/svg" id="mdi-unfold-more-horizontal" viewBox="0 0 24 24"><path d="M12,18.17L8.83,15L7.42,16.41L12,21L16.59,16.41L15.17,15M12,5.83L15.17,9L16.58,7.59L12,3L7.41,7.59L8.83,9L12,5.83Z" /></svg>
</svg>
<svg id="mdi:unfold-more-vertical">
<svg xmlns="http://www.w3.org/2000/svg" id="mdi-unfold-more-vertical" viewBox="0 0 24 24"><path d="M18.17,12L15,8.83L16.41,7.41L21,12L16.41,16.58L15,15.17L18.17,12M5.83,12L9,15.17L7.59,16.59L3,12L7.59,7.42L9,8.83L5.83,12Z" /></svg>
</svg>
<svg id="mdi:usb">
<svg xmlns="http://www.w3.org/2000/svg" id="mdi-usb" viewBox="0 0 24 24"><path d="M15,7V11H16V13H13V5H15L12,1L9,5H11V13H8V10.93C8.7,10.56 9.2,9.85 9.2,9C9.2,7.78 8.21,6.8 7,6.8C5.78,6.8 4.8,7.78 4.8,9C4.8,9.85 5.3,10.56 6,10.93V13A2,2 0 0,0 8,15H11V18.05C10.29,18.41 9.8,19.15 9.8,20A2.2,2.2 0 0,0 12,22.2A2.2,2.2 0 0,0 14.2,20C14.2,19.15 13.71,18.41 13,18.05V15H16A2,2 0 0,0 18,13V11H19V7H15Z" /></svg>
</svg>
<svg id="mdi:view-dashboard-outline">
<svg xmlns="http://www.w3.org/2000/svg" id="mdi-view-dashboard-outline" viewBox="0 0 24 24"><path d="M19,5V7H15V5H19M9,5V11H5V5H9M19,13V19H15V13H19M9,17V19H5V17H9M21,3H13V9H21V3M11,3H3V13H11V3M21,11H13V21H21V11M11,15H3V21H11V15Z" /></svg>
</svg>
<svg id="mdi:volume-minus">
<svg xmlns="http://www.w3.org/2000/svg" id="mdi-volume-minus" viewBox="0 0 24 24"><path d="M3,9H7L12,4V20L7,15H3V9M14,11H22V13H14V11Z" /></svg>
</svg>
<svg id="mdi:volume-off">
<svg xmlns="http://www.w3.org/2000/svg" id="mdi-volume-off" viewBox="0 0 24 24"><path d="M12,4L9.91,6.09L12,8.18M4.27,3L3,4.27L7.73,9H3V15H7L12,20V13.27L16.25,17.53C15.58,18.04 14.83,18.46 14,18.7V20.77C15.38,20.45 16.63,19.82 17.68,18.96L19.73,21L21,19.73L12,10.73M19,12C19,12.94 18.8,13.82 18.46,14.64L19.97,16.15C20.62,14.91 21,13.5 21,12C21,7.72 18,4.14 14,3.23V5.29C16.89,6.15 19,8.83 19,12M16.5,12C16.5,10.23 15.5,8.71 14,7.97V10.18L16.45,12.63C16.5,12.43 16.5,12.21 16.5,12Z" /></svg>
</svg>
<svg id="mdi:volume-plus">
<svg xmlns="http://www.w3.org/2000/svg" id="mdi-volume-plus" viewBox="0 0 24 24"><path d="M3,9H7L12,4V20L7,15H3V9M14,11H17V8H19V11H22V13H19V16H17V13H14V11Z" /></svg>
</svg>
<svg id="mdi:web">
<svg xmlns="http://www.w3.org/2000/svg" id="mdi-web" viewBox="0 0 24 24"><path d="M16.36,14C16.44,13.34 16.5,12.68 16.5,12C16.5,11.32 16.44,10.66 16.36,10H19.74C19.9,10.64 20,11.31 20,12C20,12.69 19.9,13.36 19.74,14M14.59,19.56C15.19,18.45 15.65,17.25 15.97,16H18.92C17.96,17.65 16.43,18.93 14.59,19.56M14.34,14H9.66C9.56,13.34 9.5,12.68 9.5,12C9.5,11.32 9.56,10.65 9.66,10H14.34C14.43,10.65 14.5,11.32 14.5,12C14.5,12.68 14.43,13.34 14.34,14M12,19.96C11.17,18.76 10.5,17.43 10.09,16H13.91C13.5,17.43 12.83,18.76 12,19.96M8,8H5.08C6.03,6.34 7.57,5.06 9.4,4.44C8.8,5.55 8.35,6.75 8,8M5.08,16H8C8.35,17.25 8.8,18.45 9.4,19.56C7.57,18.93 6.03,17.65 5.08,16M4.26,14C4.1,13.36 4,12.69 4,12C4,11.31 4.1,10.64 4.26,10H7.64C7.56,10.66 7.5,11.32 7.5,12C7.5,12.68 7.56,13.34 7.64,14M12,4.03C12.83,5.23 13.5,6.57 13.91,8H10.09C10.5,6.57 11.17,5.23 12,4.03M18.92,8H15.97C15.65,6.75 15.19,5.55 14.59,4.44C16.43,5.07 17.96,6.34 18.92,8M12,2C6.47,2 2,6.5 2,12A10,10 0 0,0 12,22A10,10 0 0,0 22,12A10,10 0 0,0 12,2Z" /></svg>
</svg>
<svg id="mdi:window-maximize">
<svg xmlns="http://www.w3.org/2000/svg" id="mdi-window-maximize" viewBox="0 0 24 24"><path d="M4,4H20V20H4V4M6,8V18H18V8H6Z" /></svg>
</svg>
<svg id="mdi:window-restore">
<svg xmlns="http://www.w3.org/2000/svg" id="mdi-window-restore" viewBox="0 0 24 24"><path d="M4,8H8V4H20V16H16V20H4V8M16,8V14H18V6H10V8H16M6,12V18H14V12H6Z" /></svg>
</svg>
</defs>/* end glyphs */
<style>/* inherit to force styles through use tags */
svg path {
    fill: inherit;
}

/* font and background color specifications */
svg.keymap {
    font-family: SFMono-Regular,Consolas,Liberation Mono,Menlo,monospace;
    font-size: 14px;
    font-kerning: normal;
    text-rendering: optimizeLegibility;
    fill: #24292e;
}

/* default key styling */
rect.key {
    fill: #f6f8fa;
}

rect.key, rect.combo {
    stroke: #c9cccf;
    stroke-width: 1;
}

/* default key side styling, only used is draw_key_sides is set */
rect.side {
    filter: brightness(90%);
}

/* color accent for combo boxes */
rect.combo, rect.combo-separate {
    fill: #cdf;
}

/* color accent for held keys */
rect.held, rect.combo.held {
    fill: #fdd;
}

/* color accent for ghost (optional) keys */
rect.ghost, rect.combo.ghost {
    stroke-dasharray: 4, 4;
    stroke-width: 2;
}

text {
    text-anchor: middle;
    dominant-baseline: middle;
}

/* styling for layer labels */
text.label {
    font-weight: bold;
    text-anchor: start;
    stroke: white;
    stroke-width: 4;
    paint-order: stroke;
}

/* styling for optional footer */
text.footer {
    text-anchor: end;
    dominant-baseline: auto;
    stroke: white;
    stroke-width: 4;
    paint-order: stroke;
}

/* styling for combo tap, and key non-tap label text */
text.combo, text.hold, text.shifted, text.left, text.right, text.tl, text.tr, text.bl, text.br {
    font-size: 11px;
}

text.hold, text.bl, text.br {
    text-anchor: middle;
    dominant-baseline: auto;
}

text.shifted, text.tl, text.tr {
    text-anchor: middle;
    dominant-baseline: hanging;
}

text.left, text.tl, text.bl {
    text-anchor: start;
}

text.right, text.tr, text.br {
    text-anchor: end;
}

text.layer-activator {
    text-decoration: underline;
}

/* styling for hold/shifted label text in combo box */
text.combo.hold, text.combo.shifted, text.combo.left, text.combo.right {
    font-size: 8px;
}

/* lighter symbol for transparent keys */
text.trans {
    fill: #7b7e81;
}

/* styling for combo dendrons */
path.combo {
    stroke-width: 1;
    stroke: gray;
    fill: none;
}

/* Start Tabler Icons Cleanup */
/* cannot use height/width with glyphs */
.icon-tabler > path {
    fill: inherit;
    stroke: inherit;
    stroke-width: 2;
}
/* hide tabler's default box */
.icon-tabler > path[stroke="none"][fill="none"] {
    visibility: hidden;
}
/* End Tabler Icons Cleanup */

svg.keymap { fill: #d1d6db; }
rect.key { fill: #3f4750; }
rect.key, rect.combo { stroke: #60666c; }
rect.combo, rect.combo-separate { fill: #1f3d7a; }
rect.held, rect.combo.held { fill: #854747; }
text.label, text.footer { stroke: black; }
text.trans { fill: #7e8184; }
path.combo { stroke: #7f7f7f; }

rect.ghost { fill: #7b7e81; }
</style>
<g transform="translate(30, 0)" class="layer-Numbers">
<text x="0" y="28" class="label" id="Numbers">Numbers:</text>
<g transform="translate(0, 56)">
<g transform="translate(28, 43)" class="key keypos-0">
<rect rx="6" ry="6" x="-24" y="-24" width="48" height="48" class="key"/>
<use href="#mdi:keyboard-return" xlink:href="#mdi:keyboard-return" x="-7" y="-7" height="14" width="14.0" class="key tap glyph mdi:keyboard-return"/>
</g>
<g transform="translate(84, 35)" class="key keypos-1">
<rect rx="6" ry="6" x="-24" y="-24" width="48" height="48" class="key"/>
<text x="0" y="0" class="key tap">1</text>
</g>
<g transform="translate(140, 28)" class="key keypos-2">
<rect rx="6" ry="6" x="-24" y="-24" width="48" height="48" class="key"/>
<text x="0" y="0" class="key tap">2</text>
</g>
<g transform="translate(196, 28)" class="key keypos-3">
<rect rx="6" ry="6" x="-24" y="-24" width="48" height="48" class="key"/>
<text x="0" y="0" class="key tap">3</text>
</g>
<g transform="translate(252, 35)" class="key keypos-4">
<rect rx="6" ry="6" x="-24" y="-24" width="48" height="48" class="key"/>
<text x="0" y="0" class="key tap">4</text>
</g>
<g transform="translate(308, 43)" class="key keypos-5">
<rect rx="6" ry="6" x="-24" y="-24" width="48" height="48" class="key"/>
<text x="0" y="0" class="key tap">5</text>
</g>
<g transform="translate(532, 43)" class="key keypos-6">
<rect rx="6" ry="6" x="-24" y="-24" width="48" height="48" class="key"/>
</g>
<g transform="translate(588, 35)" class="key keypos-7">
<rect rx="6" ry="6" x="-24" y="-24" width="48" height="48" class="key"/>
</g>
<g transform="translate(644, 28)" class="key keypos-8">
<rect rx="6" ry="6" x="-24" y="-24" width="48" height="48" class="key"/>
</g>
<g transform="translate(700, 28)" class="key keypos-9">
<rect rx="6" ry="6" x="-24" y="-24" width="48" height="48" class="key"/>
</g>
<g transform="translate(756, 35)" class="key keypos-10">
<rect rx="6" ry="6" x="-24" y="-24" width="48" height="48" class="key"/>
</g>
<g transform="translate(812, 43)" class="key keypos-11">
<rect rx="6" ry="6" x="-24" y="-24" width="48" height="48" class="key"/>
</g>
<g transform="translate(28, 99)" class="key keypos-12">
<rect rx="6" ry="6" x="-24" y="-24" width="48" height="48" class="key"/>
<use href="#mdi:keyboard-tab" xlink:href="#mdi:keyboard-tab" x="-7" y="-7" height="14" width="14.0" class="key tap glyph mdi:keyboard-tab"/>
</g>
<g transform="translate(84, 91)" class="key keypos-13">
<rect rx="6" ry="6" x="-24" y="-24" width="48" height="48" class="key"/>
<text x="0" y="0" class="key tap">6</text>
</g>
<g transform="translate(140, 84)" class="key keypos-14">
<rect rx="6" ry="6" x="-24" y="-24" width="48" height="48" class="key"/>
<text x="0" y="0" class="key tap">7</text>
</g>
<g transform="translate(196, 84)" class="key keypos-15">
<rect rx="6" ry="6" x="-24" y="-24" width="48" height="48" class="key"/>
<text x="0" y="0" class="key tap">8</text>
</g>
<g transform="translate(252, 91)" class="key keypos-16">
<rect rx="6" ry="6" x="-24" y="-24" width="48" height="48" class="key"/>
<text x="0" y="0" class="key tap">9</text>
</g>
<g transform="translate(308, 99)" class="key keypos-17">
<rect rx="6" ry="6" x="-24" y="-24" width="48" height="48" class="key"/>
<text x="0" y="0" class="key tap">0</text>
</g>
<g transform="translate(532, 99)" class="key keypos-18">
<rect rx="6" ry="6" x="-24" y="-24" width="48" height="48" class="key"/>
</g>
<g transform="translate(588, 91)" class="key held keypos-19">
<rect rx="6" ry="6" x="-24" y="-24" width="48" height="48" class="key held"/>
<use href="#mdi:apple-keyboard-shift" xlink:href="#mdi:apple-keyboard-shift" x="-7" y="-7" height="14" width="14.0" class="key held tap glyph mdi:apple-keyboard-shift"/>
</g>
<g transform="translate(644, 84)" class="key held keypos-20">
<rect rx="6" ry="6" x="-24" y="-24" width="48" height="48" class="key held"/>
<use href="#mdi:apple-keyboard-control" xlink:href="#mdi:apple-keyboard-control" x="-7" y="-7" height="14" width="14.0" class="key held tap glyph mdi:apple-keyboard-control"/>
</g>
<g transform="translate(700, 84)" class="key held keypos-21">
<rect rx="6" ry="6" x="-24" y="-24" width="48" height="48" class="key held"/>
<use href="#mdi:apple-keyboard-option" xlink:href="#mdi:apple-keyboard-option" x="-7" y="-7" height="14" width="14.0" class="key held tap glyph mdi:apple-keyboard-option"/>
</g>
<g transform="translate(756, 91)" class="key held keypos-22">
<rect rx="6" ry="6" x="-24" y="-24" width="48" height="48" class="key held"/>
<use href="#mdi:apple-keyboard-command" xlink:href="#mdi:apple-keyboard-command" x="-7" y="-7" height="14" width="14.0" class="key held tap glyph mdi:apple-keyboard-command"/>
</g>
<g transform="translate(812, 99)" class="key keypos-23">
<rect rx="6" ry="6" x="-24" y="-24" width="48" height="48" class="key"/>
</g>
<g transform="translate(28, 155)" class="key keypos-24">
<rect rx="6" ry="6" x="-24" y="-24" width="48" height="48" class="key"/>
<text x="0" y="0" class="key tap">=</text>
</g>
<g transform="translate(84, 147)" class="key keypos-25">
<rect rx="6" ry="6" x="-24" y="-24" width="48" height="48" class="key"/>
<text x="0" y="0" class="key tap">(</text>
</g>
<g transform="translate(140, 140)" class="key keypos-26">
<rect rx="6" ry="6" x="-24" y="-24" width="48" height="48" class="key"/>
<text x="0" y="0" class="key tap">+</text>
</g>
<g transform="translate(196, 140)" class="key keypos-27">
<rect rx="6" ry="6" x="-24" y="-24" width="48" height="48" class="key"/>
<text x="0" y="0" class="key tap">-</text>
</g>
<g transform="translate(252, 147)" class="key keypos-28">
<rect rx="6" ry="6" x="-24" y="-24" width="48" height="48" class="key"/>
<text x="0" y="0" class="key tap">)</text>
</g>
<g transform="translate(308, 155)" class="key keypos-29">
<rect rx="6" ry="6" x="-24" y="-24" width="48" height="48" class="key"/>
<text x="0" y="0" class="key tap">.</text>
</g>
<g transform="translate(372, 155)" class="key held keypos-30">
<rect rx="6" ry="6" x="-24" y="-17" width="48" height="34" class="key held"/>
<text x="0" y="0" class="key held tap">HYPER</text>
</g>
<g transform="translate(468, 155)" class="key held keypos-31">
<rect rx="6" ry="6" x="-24" y="-17" width="48" height="34" class="key held"/>
<text x="0" y="0" class="key held tap">HYPER</text>
</g>
<g transform="translate(532, 155)" class="key keypos-32">
<rect rx="6" ry="6" x="-24" y="-24" width="48" height="48" class="key"/>
</g>
<g transform="translate(588, 147)" class="key keypos-33">
<rect rx="6" ry="6" x="-24" y="-24" width="48" height="48" class="key"/>
</g>
<g transform="translate(644, 140)" class="key keypos-34">
<rect rx="6" ry="6" x="-24" y="-24" width="48" height="48" class="key"/>
</g>
<g transform="translate(700, 140)" class="key keypos-35">
<rect rx="6" ry="6" x="-24" y="-24" width="48" height="48" class="key"/>
</g>
<g transform="translate(756, 147)" class="key keypos-36">
<rect rx="6" ry="6" x="-24" y="-24" width="48" height="48" class="key"/>
</g>
<g transform="translate(812, 155)" class="key held keypos-37">
<rect rx="6" ry="6" x="-24" y="-24" width="48" height="48" class="key held"/>
<use href="#mdi:web" xlink:href="#mdi:web" x="-7" y="-7" height="14" width="14.0" class="key held tap glyph mdi:web"/>
</g>
<g transform="translate(140, 196)" class="key keypos-38">
<rect rx="6" ry="6" x="-24" y="-24" width="48" height="48" class="key"/>
<use href="#mdi:lock-outline" xlink:href="#mdi:lock-outline" x="-7" y="-7" height="14" width="14.0" class="key tap glyph mdi:lock-outline"/>
</g>
<g transform="translate(196, 196)" class="key keypos-39">
<rect rx="6" ry="6" x="-24" y="-24" width="48" height="48" class="key"/>
</g>
<g transform="translate(252, 203)" class="key keypos-40">
<rect rx="6" ry="6" x="-24" y="-24" width="48" height="48" class="key"/>
<text x="0" y="0" class="key tap">,</text>
</g>
<g transform="translate(308, 211)" class="key keypos-41">
<rect rx="6" ry="6" x="-24" y="-24" width="48" height="48" class="key"/>
<use href="#mdi:backspace" xlink:href="#mdi:backspace" x="-7" y="-7" height="14" width="14.0" class="key tap glyph mdi:backspace"/>
<use href="#mdi:backspace-reverse" xlink:href="#mdi:backspace-reverse" x="-5" y="-20" height="10" width="10.0" class="key shifted glyph mdi:backspace-reverse"/>
</g>
<g transform="translate(370, 215) rotate(6.0)" class="key keypos-42">
<rect rx="6" ry="6" x="-24" y="-24" width="48" height="48" class="key"/>
<use href="#mdi:keyboard-space" xlink:href="#mdi:keyboard-space" x="-7" y="-7" height="14" width="14.0" class="key tap glyph mdi:keyboard-space"/>
</g>
<g transform="translate(470, 216) rotate(-6.0)" class="key keypos-43">
<rect rx="6" ry="6" x="-24" y="-24" width="48" height="48" class="key"/>
</g>
<g transform="translate(532, 211)" class="key ghost keypos-44">
<rect rx="6" ry="6" x="-24" y="-24" width="48" height="48" class="key ghost"/>
<use href="#mdi:numeric-2-box-multiple-outline" xlink:href="#mdi:numeric-2-box-multiple-outline" x="-7" y="-7" height="14" width="14.0" class="key ghost tap glyph mdi:numeric-2-box-multiple-outline"/>
</g>
<g transform="translate(588, 203)" class="key keypos-45">
<rect rx="6" ry="6" x="-24" y="-24" width="48" height="48" class="key"/>
</g>
<g transform="translate(644, 196)" class="key keypos-46">
<rect rx="6" ry="6" x="-24" y="-24" width="48" height="48" class="key"/>
</g>
<g transform="translate(700, 196)" class="key keypos-47">
<rect rx="6" ry="6" x="-24" y="-24" width="48" height="48" class="key"/>
</g>
</g>
</g>
</svg>
